/* XPM */
static char *b73008cbcfe94647e01ba41fb313043b[] = {
/* columns rows colors chars-per-pixel */
"12 6 14 1 ",
"  c black",
". c #232323",
"X c gray14",
"o c #2A2A2A",
"O c gray17",
"+ c gray19",
"@ c #323232",
"# c #353535",
"$ c gray21",
"% c #3F3F3F",
"& c #4B4B4B",
"* c #565656",
"= c gray37",
"- c #606060",
/* pixels */
"------------",
"==$      $==",
"***+    @***",
"&&&&o  O&&&&",
"%%%%%.X%%%%%",
"############"
};
