/* XPM */
static char *_14364b8cad1422881b1f0a0f17b6d78[] = {
/* columns rows colors chars-per-pixel */
"16 16 120 2 ",
"   c black",
".  c gray2",
"X  c #060606",
"o  c gray3",
"O  c #09090A",
"+  c #0A090A",
"@  c #090A0A",
"#  c #090A0B",
"$  c gray4",
"%  c #0B0B0A",
"&  c #0A0A0B",
"*  c #0A0B0B",
"=  c #0B0B0B",
"-  c #0C0C0B",
";  c #0B0C0C",
":  c #0A0F0F",
">  c #0C0C0C",
",  c #0D0C0C",
"<  c #0C0D0C",
"1  c #0D0C0D",
"2  c gray5",
"3  c #0E0D0D",
"4  c #0D0E0D",
"5  c #0D0D0E",
"6  c #0C0E0F",
"7  c #0D0F0F",
"8  c #0E0F0E",
"9  c #0E0E0F",
"0  c #10100F",
"q  c #0B1010",
"w  c #0C1011",
"e  c #0C1111",
"r  c #0F1010",
"t  c #0F1110",
"y  c #0F1011",
"u  c #0E1111",
"i  c #0F1111",
"p  c #0E1213",
"a  c #0F1213",
"s  c #0F1314",
"d  c #0F1616",
"f  c #0D1817",
"g  c #091718",
"h  c #0E1618",
"j  c #0E1A1B",
"k  c #0D1C1D",
"l  c #0F1C1C",
"z  c #0D1D1E",
"x  c #0F1D1E",
"c  c #0D1E1F",
"v  c #101111",
"b  c #101313",
"n  c #111414",
"m  c #111515",
"M  c #121514",
"N  c #131615",
"B  c #121516",
"V  c #101616",
"C  c #101617",
"Z  c #121617",
"A  c #121817",
"S  c #111818",
"D  c #111A1B",
"F  c #141A1A",
"G  c #101F20",
"H  c #111F20",
"J  c #0F2020",
"K  c #0E2021",
"L  c #0F2021",
"P  c #0F2022",
"I  c #0F2122",
"U  c #102122",
"Y  c #102123",
"T  c #102324",
"R  c #112526",
"E  c #112628",
"W  c #10292B",
"Q  c #15292A",
"!  c #162B2C",
"~  c #163334",
"^  c #143437",
"/  c #163436",
"(  c #163C3E",
")  c gray17",
"_  c #2C2C2C",
"`  c gray24",
"'  c #3E3E3E",
"]  c #163F41",
"[  c #164143",
"{  c #194345",
"}  c #194448",
"|  c #185559",
" . c #1B5559",
".. c #19575C",
"X. c #18595D",
"o. c #1A5A5E",
"O. c #195C61",
"+. c #1A5F64",
"@. c #1B666B",
"#. c #1C6C71",
"$. c #1C6D73",
"%. c #1C6E73",
"&. c #1D6F74",
"*. c #1C7076",
"=. c #1D777D",
"-. c #1E767C",
";. c #1F777C",
":. c #1E797F",
">. c #1F7B81",
",. c #1E7C82",
"<. c #20858C",
"1. c #20868D",
"2. c #208B92",
"3. c #218F96",
"4. c #218F97",
"5. c #22939B",
"6. c #22949C",
"7. c #22959D",
"8. c #22969E",
"9. c #22979F",
/* pixels */
"' ` ' ' ' ` ` ' ` ` ` ' ` ' ` ' ",
"' _ X                     X _ ' ",
"` X . o O $ % - < 6 f z c g X ` ",
"`   o + & - 2 5 a p u | X.K   ' ",
"`   : = , s 9 b b D [ 4.,.P   ' ",
"`   k W E C v B A ( 2.9.$.J   ' ",
"`   I %.$.S M N } <.9.8.#.Y   ` ",
"'   P =.8.o.F { 1.9.9.&.^ H   ` ",
"'   L *.9.4. .>.9.9.-./ t h   ' ",
"'   K +.3.8.5.7.6.;.! Z V 9   ' ",
"`   j x ..9.9.9.-.Q Z n i 1   ` ",
"'   q 7 R O.9.:.~ Z m y 4 >   ' ",
"`   @ e 7 T @.] 0 V r 3 > =   ` ",
"` X X # w l U G d 8 1 ; * o X ` ",
"` _ X                     X ) ' ",
"` ` ' ' ` ` ` ` ' ' ' ` ` ` ' ` "
};
