<svg xmlns="http://www.w3.org/2000/svg" viewBox="0 0 396 396"><defs><style>.cls-1,.cls-2{fill:none;stroke:#9b0000;stroke-linecap:round;stroke-linejoin:round;}.cls-1{stroke-width:6px;}.cls-2{stroke-width:5px;}.cls-3,.cls-4,.cls-5,.cls-6{fill:#9b0000;}.cls-3{fill-rule:evenodd;}.cls-4{font-size:40px;}.cls-4,.cls-5,.cls-6{font-family:Times-Bold, Times;font-weight:700;}.cls-5{font-size:40px;}.cls-6{font-size:40px;}</style></defs><title>资源 1</title><g id="图层_2" data-name="图层 2"><g id="图层_1-2" data-name="图层 1"><path class="cls-1" d="M393,198C393,90.36,305.64,3,198,3S3,90.36,3,198,90.36,393,198,393s195-87.36,195-195"/><path class="cls-2" d="M341.12,197.88a143,143,0,1,0-143,143,143,143,0,0,0,143-143"/><path class="cls-3" d="M188.08,96.92v63c0,3-4,9-9,10-11,0-41,13-70,54-15,13-19-2-16-10,29-43,69-61,73-61,2-1,3-2,3-4v-19c0-1-1-1-2-1-7,2-27,6-52,27-12,7-20-7-11-15,22-17,41-26,63-31a2.15,2.15,0,0,0,2-2v-12c0-9,19-9,19,1m20,0v63c0,3,4,9,9,10,11,0,41,13,70,54,15,13,19-2,16-10-29-43-69-61-73-61-2-1-3-2-3-4v-19c0-1,1-1,2-1,7,2,27,6,52,27,12,7,20-7,11-15-22-17-41-26-63-31a2.15,2.15,0,0,1-2-2v-12c0-9-19-9-19,1m-21,96c0,1,0,1-1,1-21,2-53,29-68,62-2,13,10,16,17,6,18-32,36-47,51-49,1,0,1,0,1,1v19c0,3,0,3-2,5-15,8-21,17-32,45-3,12,13,18,17,9,13-50,43-50,56,0,4,9,20,3,17-9-11-28-17-37-32-45-2-2-2-2-2-5v-19c0-1,0-1,1-1,15,2,33,17,51,49,7,10,19,7,17-6-15-33-47-60-68-62-1,0-1,0-1-1v-7c0-13-22-13-22,0v7m144,5h0a133,133,0,1,0-133,133,133,133,0,0,0,133-133"/><text class="cls-4" transform="translate(58.95 267.32) rotate(-112)">P</text><text class="cls-5" transform="translate(46.45 232.71) rotate(-98)">E</text><text class="cls-5" transform="translate(42.3 197.19) rotate(-84)">K</text><text class="cls-5" transform="translate(49.77 152.21) rotate(-70)">I</text><text class="cls-5" transform="translate(61.51 123.21) rotate(-56)">N</text><text class="cls-5" transform="translate(84.64 91.14) rotate(-41)">G</text><text class="cls-5" transform="translate(144.02 51.94) rotate(-15)">U</text><text class="cls-5" transform="translate(183.64 42.92)">N</text><text class="cls-6" transform="matrix(0.97, 0.24, -0.24, 0.97, 228.04, 45.65)">I</text><text class="cls-6" transform="translate(258.1 54.29) rotate(28)">V</text><text class="cls-5" transform="matrix(0.74, 0.67, -0.67, 0.74, 291.88, 73.81)">E</text><text class="cls-5" transform="translate(318.5 99.27) rotate(56)">R</text><text class="cls-5" transform="translate(339.92 134.45) rotate(70)">S</text><text class="cls-5" transform="translate(351.42 173.98) rotate(84)">I</text><text class="cls-5" transform="translate(353.43 206.29) rotate(98)">T</text><text class="cls-4" transform="translate(347.21 242.6) rotate(112)">Y</text><text class="cls-5" transform="matrix(0.91, 0.41, -0.41, 0.91, 114.92, 360.12)">1</text><text class="cls-5" transform="translate(162.85 376.76) rotate(8)">8</text><text class="cls-5" transform="translate(213.5 379.53) rotate(-8)">9</text><text class="cls-5" transform="matrix(0.91, -0.41, 0.41, 0.91, 262.98, 368.26)">8</text></g></g></svg>