/* XPM */
static char *b12b19ede93b411f9678df7b5186e01e[] = {
/* columns rows colors chars-per-pixel */
"12 6 14 1 ",
"  c black",
". c #232323",
"X c #2A2A2A",
"o c gray17",
"O c #323232",
"+ c gray20",
"@ c #353535",
"# c gray21",
"$ c #393939",
"% c #3F3F3F",
"& c #4B4B4B",
"* c #565656",
"= c gray37",
"- c #606060",
/* pixels */
"------------",
"=====#$=====",
"****O  +****",
"&&&X    o&&&",
"%%.      .%%",
"@@@@@@@@@@@@"
};
