/* XPM */
static char *_d96cba96a454654cbe34c7d3e37e099[] = {
/* columns rows colors chars-per-pixel */
"16 16 66 1 ",
"  c #232323",
". c gray14",
"X c #252525",
"o c gray15",
"O c #272727",
"+ c #282828",
"@ c gray16",
"# c #2A2A2A",
"$ c gray17",
"% c #2C2C2C",
"& c #2D2D2D",
"* c gray18",
"= c #2F2F2F",
"- c gray19",
"; c #313131",
": c #323232",
"> c gray20",
", c #343434",
"< c #353535",
"1 c gray21",
"2 c #373737",
"3 c gray22",
"4 c #393939",
"5 c #3A3A3A",
"6 c gray23",
"7 c #3C3C3C",
"8 c gray24",
"9 c #3E3E3E",
"0 c #3F3F3F",
"q c gray25",
"w c #414141",
"e c gray26",
"r c gray27",
"t c gray29",
"y c #4C4C4C",
"u c gray30",
"i c #4E4E4E",
"p c gray31",
"a c #515151",
"s c #535353",
"d c gray33",
"f c #555555",
"g c #565656",
"h c gray34",
"j c #585858",
"k c #5D5D5D",
"l c gray38",
"z c #626262",
"x c gray39",
"c c #6A6A6A",
"v c gray42",
"b c #6C6C6C",
"n c gray44",
"m c #717171",
"M c #727272",
"N c gray45",
"B c #747474",
"V c #777777",
"C c gray47",
"Z c gray48",
"A c #7C7C7C",
"S c gray49",
"D c #808080",
"F c #818181",
"G c gray51",
"H c #838383",
/* pixels */
"8998898988988988",
"81o......... X19",
"8OO+++++@*wuirX9",
"9O#$$$$$,<:mMi 8",
"8O2%%3%>:ebSBp 8",
"8Oikh7&21kZHNu 9",
"9OdNM5:;vVHGNi 8",
"9OsNGm9bCHHMlt 9",
"8OsNHSmNHHMz$5 9",
"8OsmAGDFFNg34+ 9",
"8+ytmHHHNd4<*o 9",
"9+5<jnHNx53:#O 9",
"8O-6<dBc*7>&#O 8",
"8+%=5ifaq-*&#Xo9",
"83O++O+OO+OOXo48",
"89wwwewewwwwew08"
};
